<svg id="Layer_1" data-name="Layer 1" xmlns="http://www.w3.org/2000/svg" viewBox="0 0 279.36 279.36"><defs><style>.cls-1{fill:#777;}</style></defs><title>howlbuttonUntitled-1icon1</title><path d="M10.32,10.32V289.68H289.68V10.32ZM150,220.78A70.78,70.78,0,1,1,197.42,97.46,69.38,69.38,0,0,0,166,219,70.54,70.54,0,0,1,150,220.78Z" transform="translate(-10.32 -10.32)"/><path class="cls-1" d="M220.78,150A70.8,70.8,0,0,1,166,219,69.38,69.38,0,0,1,197.42,97.46,70.56,70.56,0,0,1,220.78,150Z" transform="translate(-10.32 -10.32)"/><path d="M279.72,165.64a69.45,69.45,0,1,1-69.39-69.38A69.39,69.39,0,0,1,279.72,165.64Z" transform="translate(-10.32 -10.32)"/></svg>