<?xml version="1.0" encoding="utf-8"?>
<!-- Generator: Adobe Illustrator 22.0.1, SVG Export Plug-In . SVG Version: 6.00 Build 0)  -->
<svg version="1.1" id="Layer_1" xmlns="http://www.w3.org/2000/svg" xmlns:xlink="http://www.w3.org/1999/xlink" x="0px" y="0px"
	 viewBox="0 0 56.3 24.7" style="enable-background:new 0 0 56.3 24.7;" xml:space="preserve">
<style type="text/css">
	.st0{enable-background:new    ;}
</style>
<title>howl_logoUntitled-1</title>
<g class="st0">
	<path d="M9.1,7.5c1.1,0,2,0.3,2.6,1c0.6,0.7,0.9,1.7,0.9,3v4.9h1.7v2.6H8.9v-7.3c0-0.5-0.1-0.8-0.3-1c-0.2-0.2-0.5-0.3-0.9-0.3
		c-0.6,0-1.2,0.2-1.9,0.7v5.3h1.6v2.6h-7v-2.6h1.8v-11H0.5V2.9h5.4v5.8C7.1,7.9,8.1,7.5,9.1,7.5z"/>
</g>
<g class="st0">
	<path d="M27.5,13.4c0,1.1-0.3,2.1-0.8,3c-0.5,0.9-1.2,1.6-2.1,2.1s-1.9,0.8-3,0.8c-1.1,0-2.2-0.3-3.1-0.8s-1.6-1.2-2.1-2.1
		s-0.8-1.9-0.8-3c0-1.1,0.3-2.1,0.8-3c0.5-0.9,1.2-1.6,2.1-2.1c0.9-0.5,1.9-0.8,3-0.8c1.1,0,2.1,0.3,3,0.8c0.9,0.5,1.6,1.2,2.1,2.1
		C27.2,11.3,27.5,12.3,27.5,13.4z M21.6,16.6c0.7,0,1.3-0.3,1.6-0.8c0.4-0.5,0.6-1.3,0.6-2.4c0-1-0.2-1.7-0.6-2.2
		c-0.4-0.5-1-0.8-1.7-0.8c-0.7,0-1.3,0.3-1.6,0.8c-0.4,0.5-0.6,1.3-0.6,2.4c0,0.9,0.2,1.6,0.6,2.2C20.3,16.3,20.9,16.6,21.6,16.6z"
		/>
</g>
<g class="st0">
	<path d="M33,10.4l1.4,4.2l2.3-6.8h3l2.2,6.8l1.4-4.2H42V7.8h5.5v2.6H46l-2.9,8.8H40l-2.2-6.6l-2.2,6.6h-3.1l-3-8.8h-1.5V7.8h6.2
		v2.6H33z"/>
</g>
<g class="st0">
	<path d="M55.4,16.5v2.6h-7v-2.6h1.8v-11h-1.8V2.9h5.4v13.6H55.4z"/>
</g>
</svg>
